{"title":"Paranormal.Activity.3.2011.TS.XviD-MiSTERE","uid":6766463,"size":1640119618,"categoryP":"video","categoryS":"movies","magnet":"?xt=urn:btih:b8590163f487a28827d2732abd0b459000eb2827&amp;dn=Paranormal.Activity.3.2011.TS.XviD-MiSTERE&amp;tr=udp%3A%2F%2Ftracker.openbittorrent.com%3A80&amp;tr=udp%3A%2F%2Fopen.demonii.com%3A1337&amp;tr=udp%3A%2F%2Ftracker.coppersurfer.tk%3A6969&amp;tr=udp%3A%2F%2Fexodus.desync.com%3A6969","seeders":0,"leechers":0,"uploader":".Dude.","files":-1,"time":1319403403,"description":"Paranormal Activity 3 2011 TS XviD - MiSTERE\n &lt;a href=&quot;\nhttp://www.imdb.com/title/tt1778304/&quot; rel=&quot;nofollow&quot; target=&quot;_NEW&quot;&gt;\nhttp://www.imdb.com/title/tt1778304/&lt;/a&gt;\n\nVideo\nID                               : 0\nFormat                           : MPEG-4 Visual\nFormat profile                   : Advanced Simple@L5\nFormat settings, BVOP            : 2\nFormat settings, QPel            : No\nFormat settings, GMC             : No warppoints\nFormat settings, Matrix          : Default (H.263)\nMuxing mode                      : Packed bitstream\nCodec ID                         : XVID\nCodec ID/Hint                    : XviD\nDuration                         : 1h 18mn\nBit rate                         : 2 645 Kbps\nWidth                            : 720 pixels\nHeight                           : 384 pixels\nDisplay aspect ratio             : 1.875\nFrame rate                       : 25.000 fps\nColor space                      : YUV\nChroma subsampling               : 4:2:0\nBit depth                        : 8 bits\nScan type                        : Progressive\nCompression mode                 : Lossy\nBits/(Pixel*Frame)               : 0.383\nStream size                      : 1.45 GiB (95%)\nWriting library                  : XviD 64\n\nAudio\nID                               : 1\nFormat                           : MPEG Audio\nFormat version                   : Version 1\nFormat profile                   : Layer 3\nMode                             : Joint stereo\nMode extension                   : MS Stereo\nCodec ID                         : 55\nCodec ID/Hint                    : MP3\nDuration                         : 1h 18mn\nBit rate mode                    : Constant\nBit rate                         : 128 Kbps\nChannel(s)                       : 2 channels\nSampling rate                    : 44.1 KHz\nCompression mode                 : Lossy\nStream size                      : 71.9 MiB (5%)\nAlignment                        : Split accross interleaves\nInterleave, duration             : 40 ms (1.00 video frame)\n\nThanks to RELiZLABS for the source files\nCropped resized sharpened and tweaked RGB\nOverall not a bad video, nothing missing and\nif it werent for the slight hotspots and flicker\nfrom time to time it would be very nice.\n &lt;a href=&quot;\nhttp://i.imgur.com/BVRMn.png&quot; rel=&quot;nofollow&quot; target=&quot;_NEW&quot;&gt;\nhttp://i.imgur.com/BVRMn.png&lt;/a&gt; &lt;a href=&quot;\nhttp://i.imgur.com/uhqYU.png&quot; rel=&quot;nofollow&quot; target=&quot;_NEW&quot;&gt;\nhttp://i.imgur.com/uhqYU.png&lt;/a&gt; &lt;a href=&quot;\nhttp://i.imgur.com/6PKKy.png&quot; rel=&quot;nofollow&quot; target=&quot;_NEW&quot;&gt;\nhttp://i.imgur.com/6PKKy.png&lt;/a&gt; &lt;a href=&quot;\nhttp://i.imgur.com/nzwmm.png&quot; rel=&quot;nofollow&quot; target=&quot;_NEW&quot;&gt;\nhttp://i.imgur.com/nzwmm.png&lt;/a&gt; &lt;a href=&quot;\nhttp://i.imgur.com/gXZHK.png&quot; rel=&quot;nofollow&quot; target=&quot;_NEW&quot;&gt;\nhttp://i.imgur.com/gXZHK.png&lt;/a&gt; &lt;a href=&quot;\nhttp://i.imgur.com/VVVhb.png&quot; rel=&quot;nofollow&quot; target=&quot;_NEW&quot;&gt;\nhttp://i.imgur.com/VVVhb.png&lt;/a&gt; &lt;a href=&quot;\nhttp://i.imgur.com/kbFZR.png&quot; rel=&quot;nofollow&quot; target=&quot;_NEW&quot;&gt;\nhttp://i.imgur.com/kbFZR.png&lt;/a&gt; &lt;a href=&quot;\nhttp://i.imgur.com/Z6jnK.png&quot; rel=&quot;nofollow&quot; target=&quot;_NEW&quot;&gt;\nhttp://i.imgur.com/Z6jnK.png&lt;/a&gt;\n","torrent":{"xt":"urn:btih:b8590163f487a28827d2732abd0b459000eb2827","amp;dn":"Paranormal.Activity.3.2011.TS.XviD-MiSTERE","amp;tr":["udp%3A%2F%2Ftracker.openbittorrent.com%3A80","udp%3A%2F%2Fopen.demonii.com%3A1337","udp%3A%2F%2Ftracker.coppersurfer.tk%3A6969","udp%3A%2F%2Fexodus.desync.com%3A6969"],"infoHash":"b8590163f487a28827d2732abd0b459000eb2827","infoHashBuffer":{"type":"Buffer","data":[184,89,1,99,244,135,162,136,39,210,115,42,189,11,69,144,0,235,40,39]},"announce":[],"urlList":[]}}